<mxfile host="65bd71144e">
    <diagram name="Page-1" id="Mc0gX32QP7m6tFfLGlkD">
        <mxGraphModel dx="1150" dy="533" grid="1" gridSize="10" guides="1" tooltips="1" connect="1" arrows="1" fold="1" page="1" pageScale="1" pageWidth="700" pageHeight="1000" math="0" shadow="0">
            <root>
                <mxCell id="0"/>
                <mxCell id="1" parent="0"/>
                <mxCell id="AVD2DgZy0pYyYMZF2b6G-1" value="Developer" style="swimlane;fontStyle=1;align=center;verticalAlign=top;childLayout=stackLayout;horizontal=1;startSize=26;horizontalStack=0;resizeParent=1;resizeParentMax=0;resizeLast=0;collapsible=1;marginBottom=0;" parent="1" vertex="1">
                    <mxGeometry x="80" y="40" width="280" height="190" as="geometry"/>
                </mxCell>
                <mxCell id="AVD2DgZy0pYyYMZF2b6G-2" value="- insert: ICommand" style="text;strokeColor=none;fillColor=none;align=left;verticalAlign=top;spacingLeft=4;spacingRight=4;overflow=hidden;rotatable=0;points=[[0,0.5],[1,0.5]];portConstraint=eastwest;" parent="AVD2DgZy0pYyYMZF2b6G-1" vertex="1">
                    <mxGeometry y="26" width="280" height="26" as="geometry"/>
                </mxCell>
                <mxCell id="AVD2DgZy0pYyYMZF2b6G-5" value="- update: ICommand" style="text;strokeColor=none;fillColor=none;align=left;verticalAlign=top;spacingLeft=4;spacingRight=4;overflow=hidden;rotatable=0;points=[[0,0.5],[1,0.5]];portConstraint=eastwest;" parent="AVD2DgZy0pYyYMZF2b6G-1" vertex="1">
                    <mxGeometry y="52" width="280" height="26" as="geometry"/>
                </mxCell>
                <mxCell id="AVD2DgZy0pYyYMZF2b6G-6" value="- remove: ICommand" style="text;strokeColor=none;fillColor=none;align=left;verticalAlign=top;spacingLeft=4;spacingRight=4;overflow=hidden;rotatable=0;points=[[0,0.5],[1,0.5]];portConstraint=eastwest;" parent="AVD2DgZy0pYyYMZF2b6G-1" vertex="1">
                    <mxGeometry y="78" width="280" height="26" as="geometry"/>
                </mxCell>
                <mxCell id="AVD2DgZy0pYyYMZF2b6G-3" value="" style="line;strokeWidth=1;fillColor=none;align=left;verticalAlign=middle;spacingTop=-1;spacingLeft=3;spacingRight=3;rotatable=0;labelPosition=right;points=[];portConstraint=eastwest;strokeColor=inherit;" parent="AVD2DgZy0pYyYMZF2b6G-1" vertex="1">
                    <mxGeometry y="104" width="280" height="8" as="geometry"/>
                </mxCell>
                <mxCell id="AVD2DgZy0pYyYMZF2b6G-7" value="+ insertData(data: string): void" style="text;strokeColor=none;fillColor=none;align=left;verticalAlign=top;spacingLeft=4;spacingRight=4;overflow=hidden;rotatable=0;points=[[0,0.5],[1,0.5]];portConstraint=eastwest;" parent="AVD2DgZy0pYyYMZF2b6G-1" vertex="1">
                    <mxGeometry y="112" width="280" height="26" as="geometry"/>
                </mxCell>
                <mxCell id="AVD2DgZy0pYyYMZF2b6G-8" value="+ updateData(data: string, update: string): void" style="text;strokeColor=none;fillColor=none;align=left;verticalAlign=top;spacingLeft=4;spacingRight=4;overflow=hidden;rotatable=0;points=[[0,0.5],[1,0.5]];portConstraint=eastwest;" parent="AVD2DgZy0pYyYMZF2b6G-1" vertex="1">
                    <mxGeometry y="138" width="280" height="26" as="geometry"/>
                </mxCell>
                <mxCell id="AVD2DgZy0pYyYMZF2b6G-4" value="+ removeData(data: string): void" style="text;strokeColor=none;fillColor=none;align=left;verticalAlign=top;spacingLeft=4;spacingRight=4;overflow=hidden;rotatable=0;points=[[0,0.5],[1,0.5]];portConstraint=eastwest;" parent="AVD2DgZy0pYyYMZF2b6G-1" vertex="1">
                    <mxGeometry y="164" width="280" height="26" as="geometry"/>
                </mxCell>
                <mxCell id="AVD2DgZy0pYyYMZF2b6G-10" value="&lt;p style=&quot;margin:0px;margin-top:4px;text-align:center;&quot;&gt;&lt;i&gt;&amp;lt;&amp;lt;Interface&amp;gt;&amp;gt;&lt;/i&gt;&lt;br&gt;&lt;b&gt;ICommand&lt;/b&gt;&lt;/p&gt;&lt;hr size=&quot;1&quot;&gt;&lt;p style=&quot;margin:0px;margin-left:4px;&quot;&gt;+ execute(data?: string, update?: string)&lt;/p&gt;" style="verticalAlign=top;align=left;overflow=fill;fontSize=12;fontFamily=Helvetica;html=1;" parent="1" vertex="1">
                    <mxGeometry x="490" y="40" width="220" height="70" as="geometry"/>
                </mxCell>
                <mxCell id="AVD2DgZy0pYyYMZF2b6G-12" value="3" style="endArrow=open;html=1;endSize=12;startArrow=diamondThin;startSize=14;startFill=0;edgeStyle=orthogonalEdgeStyle;align=left;verticalAlign=bottom;rounded=0;entryX=-0.009;entryY=0.559;entryDx=0;entryDy=0;entryPerimeter=0;" parent="1" target="AVD2DgZy0pYyYMZF2b6G-10" edge="1">
                    <mxGeometry x="-0.8551" y="1" relative="1" as="geometry">
                        <mxPoint x="360" y="80" as="sourcePoint"/>
                        <mxPoint x="480" y="80" as="targetPoint"/>
                        <Array as="points">
                            <mxPoint x="480" y="80"/>
                        </Array>
                        <mxPoint as="offset"/>
                    </mxGeometry>
                </mxCell>
                <mxCell id="AVD2DgZy0pYyYMZF2b6G-13" value="InsertCommand" style="swimlane;fontStyle=1;align=center;verticalAlign=top;childLayout=stackLayout;horizontal=1;startSize=26;horizontalStack=0;resizeParent=1;resizeParentMax=0;resizeLast=0;collapsible=1;marginBottom=0;" parent="1" vertex="1">
                    <mxGeometry x="490" y="160" width="250" height="86" as="geometry"/>
                </mxCell>
                <mxCell id="AVD2DgZy0pYyYMZF2b6G-14" value="- database: Database" style="text;strokeColor=none;fillColor=none;align=left;verticalAlign=top;spacingLeft=4;spacingRight=4;overflow=hidden;rotatable=0;points=[[0,0.5],[1,0.5]];portConstraint=eastwest;" parent="AVD2DgZy0pYyYMZF2b6G-13" vertex="1">
                    <mxGeometry y="26" width="250" height="26" as="geometry"/>
                </mxCell>
                <mxCell id="AVD2DgZy0pYyYMZF2b6G-15" value="" style="line;strokeWidth=1;fillColor=none;align=left;verticalAlign=middle;spacingTop=-1;spacingLeft=3;spacingRight=3;rotatable=0;labelPosition=right;points=[];portConstraint=eastwest;strokeColor=inherit;" parent="AVD2DgZy0pYyYMZF2b6G-13" vertex="1">
                    <mxGeometry y="52" width="250" height="8" as="geometry"/>
                </mxCell>
                <mxCell id="AVD2DgZy0pYyYMZF2b6G-16" value="+ execute(data:string):void" style="text;strokeColor=none;fillColor=none;align=left;verticalAlign=top;spacingLeft=4;spacingRight=4;overflow=hidden;rotatable=0;points=[[0,0.5],[1,0.5]];portConstraint=eastwest;" parent="AVD2DgZy0pYyYMZF2b6G-13" vertex="1">
                    <mxGeometry y="60" width="250" height="26" as="geometry"/>
                </mxCell>
                <mxCell id="AVD2DgZy0pYyYMZF2b6G-17" value="UpdateCommand" style="swimlane;fontStyle=1;align=center;verticalAlign=top;childLayout=stackLayout;horizontal=1;startSize=26;horizontalStack=0;resizeParent=1;resizeParentMax=0;resizeLast=0;collapsible=1;marginBottom=0;" parent="1" vertex="1">
                    <mxGeometry x="490" y="283" width="250" height="86" as="geometry"/>
                </mxCell>
                <mxCell id="AVD2DgZy0pYyYMZF2b6G-25" value="- database: Database" style="text;strokeColor=none;fillColor=none;align=left;verticalAlign=top;spacingLeft=4;spacingRight=4;overflow=hidden;rotatable=0;points=[[0,0.5],[1,0.5]];portConstraint=eastwest;" parent="AVD2DgZy0pYyYMZF2b6G-17" vertex="1">
                    <mxGeometry y="26" width="250" height="26" as="geometry"/>
                </mxCell>
                <mxCell id="AVD2DgZy0pYyYMZF2b6G-19" value="" style="line;strokeWidth=1;fillColor=none;align=left;verticalAlign=middle;spacingTop=-1;spacingLeft=3;spacingRight=3;rotatable=0;labelPosition=right;points=[];portConstraint=eastwest;strokeColor=inherit;" parent="AVD2DgZy0pYyYMZF2b6G-17" vertex="1">
                    <mxGeometry y="52" width="250" height="8" as="geometry"/>
                </mxCell>
                <mxCell id="AVD2DgZy0pYyYMZF2b6G-20" value="+ execute(data:string, update: strimg):void" style="text;strokeColor=none;fillColor=none;align=left;verticalAlign=top;spacingLeft=4;spacingRight=4;overflow=hidden;rotatable=0;points=[[0,0.5],[1,0.5]];portConstraint=eastwest;" parent="AVD2DgZy0pYyYMZF2b6G-17" vertex="1">
                    <mxGeometry y="60" width="250" height="26" as="geometry"/>
                </mxCell>
                <mxCell id="AVD2DgZy0pYyYMZF2b6G-21" value="RemoveCommand" style="swimlane;fontStyle=1;align=center;verticalAlign=top;childLayout=stackLayout;horizontal=1;startSize=26;horizontalStack=0;resizeParent=1;resizeParentMax=0;resizeLast=0;collapsible=1;marginBottom=0;" parent="1" vertex="1">
                    <mxGeometry x="490" y="400" width="250" height="86" as="geometry"/>
                </mxCell>
                <mxCell id="AVD2DgZy0pYyYMZF2b6G-22" value="- database: Database" style="text;strokeColor=none;fillColor=none;align=left;verticalAlign=top;spacingLeft=4;spacingRight=4;overflow=hidden;rotatable=0;points=[[0,0.5],[1,0.5]];portConstraint=eastwest;" parent="AVD2DgZy0pYyYMZF2b6G-21" vertex="1">
                    <mxGeometry y="26" width="250" height="26" as="geometry"/>
                </mxCell>
                <mxCell id="AVD2DgZy0pYyYMZF2b6G-23" value="" style="line;strokeWidth=1;fillColor=none;align=left;verticalAlign=middle;spacingTop=-1;spacingLeft=3;spacingRight=3;rotatable=0;labelPosition=right;points=[];portConstraint=eastwest;strokeColor=inherit;" parent="AVD2DgZy0pYyYMZF2b6G-21" vertex="1">
                    <mxGeometry y="52" width="250" height="8" as="geometry"/>
                </mxCell>
                <mxCell id="AVD2DgZy0pYyYMZF2b6G-24" value="+ execute(data:string):void" style="text;strokeColor=none;fillColor=none;align=left;verticalAlign=top;spacingLeft=4;spacingRight=4;overflow=hidden;rotatable=0;points=[[0,0.5],[1,0.5]];portConstraint=eastwest;" parent="AVD2DgZy0pYyYMZF2b6G-21" vertex="1">
                    <mxGeometry y="60" width="250" height="26" as="geometry"/>
                </mxCell>
                <mxCell id="AVD2DgZy0pYyYMZF2b6G-26" value="Database" style="swimlane;fontStyle=1;align=center;verticalAlign=top;childLayout=stackLayout;horizontal=1;startSize=26;horizontalStack=0;resizeParent=1;resizeParentMax=0;resizeLast=0;collapsible=1;marginBottom=0;" parent="1" vertex="1">
                    <mxGeometry x="80" y="283" width="280" height="138" as="geometry"/>
                </mxCell>
                <mxCell id="AVD2DgZy0pYyYMZF2b6G-27" value="- storage: string [ ]" style="text;strokeColor=none;fillColor=none;align=left;verticalAlign=top;spacingLeft=4;spacingRight=4;overflow=hidden;rotatable=0;points=[[0,0.5],[1,0.5]];portConstraint=eastwest;" parent="AVD2DgZy0pYyYMZF2b6G-26" vertex="1">
                    <mxGeometry y="26" width="280" height="26" as="geometry"/>
                </mxCell>
                <mxCell id="AVD2DgZy0pYyYMZF2b6G-28" value="" style="line;strokeWidth=1;fillColor=none;align=left;verticalAlign=middle;spacingTop=-1;spacingLeft=3;spacingRight=3;rotatable=0;labelPosition=right;points=[];portConstraint=eastwest;strokeColor=inherit;" parent="AVD2DgZy0pYyYMZF2b6G-26" vertex="1">
                    <mxGeometry y="52" width="280" height="8" as="geometry"/>
                </mxCell>
                <mxCell id="AVD2DgZy0pYyYMZF2b6G-29" value="+ insert(data: string): void" style="text;strokeColor=none;fillColor=none;align=left;verticalAlign=top;spacingLeft=4;spacingRight=4;overflow=hidden;rotatable=0;points=[[0,0.5],[1,0.5]];portConstraint=eastwest;" parent="AVD2DgZy0pYyYMZF2b6G-26" vertex="1">
                    <mxGeometry y="60" width="280" height="26" as="geometry"/>
                </mxCell>
                <mxCell id="AVD2DgZy0pYyYMZF2b6G-38" value="+ update(data: string, update: string): void" style="text;strokeColor=none;fillColor=none;align=left;verticalAlign=top;spacingLeft=4;spacingRight=4;overflow=hidden;rotatable=0;points=[[0,0.5],[1,0.5]];portConstraint=eastwest;" parent="AVD2DgZy0pYyYMZF2b6G-26" vertex="1">
                    <mxGeometry y="86" width="280" height="26" as="geometry"/>
                </mxCell>
                <mxCell id="AVD2DgZy0pYyYMZF2b6G-39" value="+ remove(data: string): void" style="text;strokeColor=none;fillColor=none;align=left;verticalAlign=top;spacingLeft=4;spacingRight=4;overflow=hidden;rotatable=0;points=[[0,0.5],[1,0.5]];portConstraint=eastwest;" parent="AVD2DgZy0pYyYMZF2b6G-26" vertex="1">
                    <mxGeometry y="112" width="280" height="26" as="geometry"/>
                </mxCell>
                <mxCell id="AVD2DgZy0pYyYMZF2b6G-30" value="" style="endArrow=block;dashed=1;endFill=0;endSize=12;html=1;rounded=0;entryX=1;entryY=0.5;entryDx=0;entryDy=0;exitX=1;exitY=0.5;exitDx=0;exitDy=0;" parent="1" source="AVD2DgZy0pYyYMZF2b6G-22" target="AVD2DgZy0pYyYMZF2b6G-10" edge="1">
                    <mxGeometry width="160" relative="1" as="geometry">
                        <mxPoint x="350" y="280" as="sourcePoint"/>
                        <mxPoint x="510" y="280" as="targetPoint"/>
                        <Array as="points">
                            <mxPoint x="840" y="440"/>
                            <mxPoint x="840" y="75"/>
                        </Array>
                    </mxGeometry>
                </mxCell>
                <mxCell id="AVD2DgZy0pYyYMZF2b6G-32" value="" style="endArrow=none;dashed=1;html=1;rounded=0;entryX=1;entryY=0.5;entryDx=0;entryDy=0;" parent="1" target="AVD2DgZy0pYyYMZF2b6G-14" edge="1">
                    <mxGeometry width="50" height="50" relative="1" as="geometry">
                        <mxPoint x="840" y="200" as="sourcePoint"/>
                        <mxPoint x="450" y="260" as="targetPoint"/>
                    </mxGeometry>
                </mxCell>
                <mxCell id="AVD2DgZy0pYyYMZF2b6G-33" value="" style="endArrow=none;dashed=1;html=1;rounded=0;entryX=1;entryY=0.5;entryDx=0;entryDy=0;" parent="1" edge="1">
                    <mxGeometry width="50" height="50" relative="1" as="geometry">
                        <mxPoint x="840" y="321" as="sourcePoint"/>
                        <mxPoint x="740" y="320" as="targetPoint"/>
                    </mxGeometry>
                </mxCell>
                <mxCell id="AVD2DgZy0pYyYMZF2b6G-34" value="1" style="endArrow=open;html=1;endSize=12;startArrow=diamondThin;startSize=14;startFill=0;edgeStyle=orthogonalEdgeStyle;align=left;verticalAlign=bottom;rounded=0;exitX=0;exitY=0.5;exitDx=0;exitDy=0;entryX=1;entryY=0;entryDx=0;entryDy=0;" parent="1" source="AVD2DgZy0pYyYMZF2b6G-14" target="AVD2DgZy0pYyYMZF2b6G-26" edge="1">
                    <mxGeometry x="-1" y="3" relative="1" as="geometry">
                        <mxPoint x="350" y="330" as="sourcePoint"/>
                        <mxPoint x="390" y="300" as="targetPoint"/>
                        <Array as="points">
                            <mxPoint x="460" y="199"/>
                            <mxPoint x="460" y="283"/>
                        </Array>
                    </mxGeometry>
                </mxCell>
                <mxCell id="AVD2DgZy0pYyYMZF2b6G-36" value="1" style="endArrow=open;html=1;endSize=12;startArrow=diamondThin;startSize=14;startFill=0;edgeStyle=orthogonalEdgeStyle;align=left;verticalAlign=bottom;rounded=0;exitX=0;exitY=0.5;exitDx=0;exitDy=0;entryX=1;entryY=0.5;entryDx=0;entryDy=0;" parent="1" source="AVD2DgZy0pYyYMZF2b6G-25" target="AVD2DgZy0pYyYMZF2b6G-27" edge="1">
                    <mxGeometry x="-1" y="3" relative="1" as="geometry">
                        <mxPoint x="350" y="280" as="sourcePoint"/>
                        <mxPoint x="510" y="280" as="targetPoint"/>
                    </mxGeometry>
                </mxCell>
                <mxCell id="AVD2DgZy0pYyYMZF2b6G-37" value="1" style="endArrow=open;html=1;endSize=12;startArrow=diamondThin;startSize=14;startFill=0;edgeStyle=orthogonalEdgeStyle;align=left;verticalAlign=bottom;rounded=0;exitX=-0.003;exitY=0.107;exitDx=0;exitDy=0;exitPerimeter=0;entryX=1;entryY=0.5;entryDx=0;entryDy=0;" parent="1" source="AVD2DgZy0pYyYMZF2b6G-21" target="AVD2DgZy0pYyYMZF2b6G-29" edge="1">
                    <mxGeometry x="-1" y="3" relative="1" as="geometry">
                        <mxPoint x="350" y="280" as="sourcePoint"/>
                        <mxPoint x="510" y="280" as="targetPoint"/>
                    </mxGeometry>
                </mxCell>
            </root>
        </mxGraphModel>
    </diagram>
</mxfile>